<svg width="128" height="128" viewBox="0 0 128 128" fill="none" xmlns="http://www.w3.org/2000/svg">
<circle cx="64" cy="64" r="63.5" fill="#F4F5F6" stroke="#E6EBF2"/>
<path d="M35.0714 75.3726C32.4091 75.3726 30.1747 73.2005 29.9872 70.4406L28.0082 45.0288C27.9163 43.9194 28.6003 41.9575 29.9789 41.9575L88.5541 41.9581L90.5752 37.9309C92.1201 35.3502 95.4123 34 97.8664 34H111.161C111.941 34 112.571 34.6299 112.571 35.4095C112.571 36.1892 111.941 36.8191 111.161 36.8191H97.8664C96.2241 36.8191 93.9538 37.7761 93.0444 39.2856L76.3492 72.5537H80.4266C81.2063 72.5537 81.8362 73.1836 81.8362 73.9632V83.2353C81.8362 84.015 81.2063 84.6449 80.4266 84.6449H73.885C74.4054 85.4988 74.7225 86.4898 74.7225 87.5614C74.7225 90.6706 72.1936 93.2008 69.0844 93.2008C65.9752 93.2008 63.4463 90.6706 63.4463 87.5614C63.4463 86.4904 63.7635 85.498 64.2838 84.6449H42.3468C42.8672 85.4988 43.1843 86.4898 43.1843 87.5614C43.1843 90.6706 40.6553 93.2008 37.5462 93.2008C34.437 93.2008 31.9081 90.6706 31.9081 87.5614C31.9081 86.4904 32.2252 85.498 32.7456 84.6449C30.688 84.7506 30.2312 81.8258 32.3127 81.8258H79.0188V75.3728L35.0714 75.3726ZM42.9156 62.9731H52.1889V55.0527H42.9156V62.9731ZM40.0966 55.0534H31.6167L32.234 62.9738H40.0966V55.0534ZM55.008 65.7922V72.5536H64.2812V65.7922H55.008ZM64.2825 62.9731V55.0527H55.0092V62.9731H64.2825ZM52.1889 65.7922H42.9156V72.5536H52.1889V65.7922ZM52.1889 52.2343V44.7777H42.9156V52.2343H52.1889ZM55.008 52.2343H64.2812V44.7777H55.008V52.2343ZM67.1015 52.2343H75.3838V44.7777H67.1015V52.2343ZM67.1015 55.0534V62.9738H75.3838V55.0534H67.1015ZM78.2028 62.583L81.9815 55.0534H78.2028V62.583ZM75.3838 65.7922H67.1015V72.5536H73.1991L75.3838 68.1998V65.7922ZM35.0713 72.5536H40.0964V65.7922H32.4542L32.8009 70.2366C32.8897 71.5574 33.865 72.5536 35.0713 72.5536H35.0713ZM30.8188 44.8028L31.3984 52.2324H40.0978V44.7757H30.8188C30.8175 44.7858 30.8175 44.7946 30.8188 44.8028L30.8188 44.8028ZM78.2031 44.7776V52.2343H83.397L87.1391 44.7776H78.2031ZM69.0865 90.3819C70.6414 90.3819 71.9055 89.1177 71.9055 87.5615C71.9055 86.0054 70.6414 84.7412 69.0865 84.7412C67.5316 84.7412 66.2674 86.0054 66.2674 87.5615C66.2674 89.1177 67.5316 90.3819 69.0865 90.3819ZM37.5453 90.3819C39.1002 90.3819 40.3643 89.1177 40.3643 87.5615C40.3643 86.0054 39.1002 84.7412 37.5453 84.7412C35.9904 84.7412 34.7262 86.0054 34.7262 87.5615C34.7262 89.1177 35.9923 90.3819 37.5453 90.3819Z" fill="#CFD7E6"/>
<path d="M107.351 50.4336L106.155 54.2015" stroke="#CFD7E5" stroke-width="2" stroke-linecap="round" stroke-linejoin="round"/>
<path d="M108.637 52.9152L104.869 51.7199" stroke="#CFD7E5" stroke-width="2" stroke-linecap="round" stroke-linejoin="round"/>
<path d="M107.351 50.4336L106.155 54.2015" stroke="#CFD7E5" stroke-linecap="round" stroke-linejoin="round"/>
<path d="M108.637 52.9152L104.869 51.7199" stroke="#CFD7E5" stroke-linecap="round" stroke-linejoin="round"/>
<path d="M19.9497 44.7266L18.7544 48.4945" stroke="#CFD7E5" stroke-width="2" stroke-linecap="round" stroke-linejoin="round"/>
<path d="M21.2361 47.2081L17.4682 46.0129" stroke="#CFD7E5" stroke-width="2" stroke-linecap="round" stroke-linejoin="round"/>
<path d="M19.9497 44.7266L18.7544 48.4945" stroke="#CFD7E5" stroke-linecap="round" stroke-linejoin="round"/>
<path d="M21.2361 47.2081L17.4682 46.0129" stroke="#CFD7E5" stroke-linecap="round" stroke-linejoin="round"/>
<circle cx="67.9765" cy="22.9413" r="1.97647" fill="#CFD7E5"/>
<circle cx="73.2471" cy="26.2356" r="1.31765" fill="#CFD7E5"/>
<circle cx="60.0706" cy="23.5999" r="1.31765" fill="#CFD7E5"/>
</svg>
